<?xml version="1.0" encoding="UTF-8"?>
<svg id="Layer_1" xmlns="http://www.w3.org/2000/svg" version="1.1" viewBox="0 0 497.13 191.94">
  <!-- Generator: Adobe Illustrator 30.2.1, SVG Export Plug-In . SVG Version: 2.1.1 Build 1)  -->
  <path d="M126.51,168.24c-9.41,11.36-21.62,18.34-35.81,21.42-28.69,6.23-69.96.45-85.59-27.23-6.79-12.03-7.17-26.99,1.02-38.31,10.89-15.05,33.42-15.93,46.26-3.12,1.8,1.8,3.13,5.26,2.56,7.34-7.76,6.69-12.07,15.25-11.8,25.13.25,9.22,4.34,18.43,12.76,23.94,8.35,5.46,19.01,6.26,28.46,3.22,10.8-3.48,17.71-12.69,18.61-24,1.47-18.35-13.52-31.81-27.63-41.13l-34.82-23c-20.69-13.67-35.1-31.04-29.82-56.04,2.5-11.86,11.4-23.22,23.77-29.53C56.03-4.06,80.37-.05,102.66,5.78c11.82,3.1,12.89-4.99,18.26-4.19.96.14,2.64,2.07,2.77,3.12l6.23,51.58c.38,3.14-.27,5.98-3.47,6.84-2.08.56-5-.78-6.43-3.16-9.54-15.96-20.78-34.69-36.17-45.28-7.12-4.9-15.5-6.69-23.81-4.92-8.44,1.79-14.03,8.85-14.26,17.69-.42,16.34,15.94,26.76,28.5,34.73l26.04,16.52c8.51,5.4,15.75,11.66,22.77,18.79,19.02,19.32,21.08,49.41,3.41,70.74Z"/>
  <path d="M481.73,153.46c8.04-8.5,8.76-16.13,13.08-15.88,1.04.06,2.52,2.45,2.31,3.61-5.22,28.87-26.81,51.29-57.98,50.65-28.08-.58-52.27-19.61-59.66-46.8-4.43-16.3-4-33.12,2.02-48.96,12.69-33.4,45.9-51.2,80.42-39.88,17.26,5.66,29.75,20.47,32.13,38.15.57,4.23-1.3,8.14-4.76,10.06-8.4,4.66-16.37,9.17-25.09,13.19l-40.92,18.84c3.62,9.97,9.56,18.19,18.28,23.06,13.41,7.5,29.42,5.35,40.18-6.02ZM443.49,114.55c7.94-6.85,11.75-15.57,11.49-25.73-.25-9.83-2.99-25.99-14.15-27.47-24.87-3.29-25.91,51.38-20.07,67.85,8.61-4.63,15.57-9.13,22.73-14.65Z"/>
  <path d="M250.66,152.93c7.69-8.26,8.32-15.62,12.69-15.39,1.06.05,2.47,2.46,2.24,3.7-5.08,27.57-25.23,49.9-55.15,50.61-26.96.64-51.06-15.3-60.57-40.81-13.71-36.78,1.84-83.93,41.41-95.76,11.46-3.43,23.47-3.18,34.87-.08,18.29,4.97,32.23,19.98,35.46,38.31.97,5.49-1.14,9.4-5.75,11.89-20.98,11.32-42.13,20.96-64.34,30.93,2.07,5.95,5.16,11.41,9.46,16.17,13.3,14.72,35.78,15.35,49.66.43ZM221.33,100.44c4.08-12.99,1.19-38.04-13.41-39.31-4.72-.41-9.13,1.67-12.32,5.77-11.19,14.36-11.49,43.92-6.72,62.32,11.61-6.65,28.15-15.08,32.45-28.78Z"/>
  <path d="M353.22,55.41l30.05-.03c1.03,0,3.26,1.14,3.76,2,.58,1,.15,3.65-.69,4.56-6.38,6.98-10.79,14.2-14.24,23.19l-38.02,99.24c-.3.79-.8,1.75-1.38,2.67-1.1,1.76-3.02,2.83-5.09,2.87-7.39.15-12.23.96-14.3-4.43l-44.09-103.5c-3.26-7.65-8.55-15.04-13.88-20.39-.78-.78-.94-3.78-.52-4.64.42-.86,2.09-1.53,3.51-1.53l61.62-.05c1.61,0,3.96,1.31,4.32,2.47,1.8,5.84-8.24,5.06-7.87,20.01,1.12,5.45,2.31,10.93,4.3,16.25l17.88,47.7c6.18-16.14,11.1-30.82,16-46.47,1.86-5.94,2.88-12.05,3.49-18.2-.6-13.93-10.24-13.51-8.98-19.31.25-1.15,2.62-2.42,4.1-2.42Z"/>
  <path d="M225.54,38.87c.43.74.55,3.31-.04,3.67-.74.46-2.53.85-3.44.48-12.97-5.26-25.29-10.75-36.95-18.16-8.04-5.11-12.2-14.02-9.67-23.33l24.99-.11c4.79-.02,8.33,4.33,10.19,8.37,4.62,10.04,9.11,19.08,14.91,29.08Z"/>
</svg>